# AST/ASF file generated using VICON BodyLanguage
# -----------------------------------------------
:version 1.10
:name VICON
:units
  mass 1.0
  length 0.45
  angle deg
:documentation
   .ast/.asf automatically generated from VICON data using
   VICON BodyBuilder and BodyLanguage model FoxedUp or BRILLIANT.MOD
:root
   order TX TY TZ RX RY RZ
   axis XYZ
   position 0 0 0  
   orientation 0 0 0 
:bonedata
  begin
     id 1 
     name lhipjoint
     direction 0.700308 -0.549349 0.455834 
     length 2.59063 
     axis 0 0 0  XYZ
  end
  begin
     id 2 
     name lfemur
     direction 0.34202 -0.939693 0  
     length 6.31066  
     axis 0 0 20  XYZ
    dof rx ry rz
    limits (-160.0 20.0)
           (-70.0 70.0)
           (-60.0 70.0)
  end
  begin
     id 3 
     name ltibia
     direction 0.34202 -0.939693 0   
     length 7.36093   
     axis 0 0 20   XYZ
    dof rx
    limits (-10.0 170.0)
  end
  begin
     id 4 
     name lfoot
     direction 0.0905332 -0.248738 0.96433   
     length 2.0233   
     axis -90 7.62852e-016 20   XYZ
    dof rx rz
    limits (-45.0 90.0)
           (-70.0 20.0)
  end
  begin
     id 5 
     name ltoes
     direction 1.53573e-011 -4.21855e-011 1   
     length 1.01524   
     axis -90 7.62852e-016 20   XYZ
    dof rx
    limits (-90.0 20.0)
  end
  begin
     id 6 
     name rhipjoint
     direction -0.61416 -0.607328 0.503944   
     length 2.34332  
     axis 0 0 0  XYZ 
  end
  begin
     id 7 
     name rfemur
     direction -0.34202 -0.939693 0   
     length 6.58548   
     axis 0 0 -20   XYZ
    dof rx ry rz
    limits (-160.0 20.0)
           (-70.0 70.0)
           (-70.0 60.0)
  end
  begin
     id 8 
     name rtibia
     direction -0.34202 -0.939693 0   
     length 7.20707   
     axis 0 0 -20   XYZ
    dof rx
    limits (-10.0 170.0)
 end
 begin
     id 9 
     name rfoot
     direction -0.136772 -0.375778 0.916561   
     length 1.92184  
     axis -90 -7.62852e-016 -20   XYZ
    dof rx rz
    limits (-45.0 90.0)
           (-20.0 70.0)
  end
  begin
     id 10 
     name rtoes
     direction -1.53535e-011 -4.21828e-011 1   
     length 0.951089   
     axis -90 -7.62852e-016 -20   XYZ
    dof rx
    limits (-90.0 20.0)
  end
  begin
     id 11 
     name lowerback
     direction -0.0444974 0.988086 -0.147332   
     length 1.9609   
     axis 0 0 0   XYZ
    dof rx ry rz
    limits (-20.0 45.0)
           (-30.0 30.0)
           (-30.0 30.0)
  end
  begin
     id 12 
     name upperback
     direction 0.00613146 0.999513 0.0306081   
     length 1.94944   
     axis 0 0 0   XYZ
    dof rx ry rz
    limits (-20.0 45.0)
           (-30.0 30.0)
           (-30.0 30.0)
  end
  begin
     id 13 
     name thorax
     direction 0.0254621 0.994518 0.101418   
     length 2.0119   
     axis 0 0 0   XYZ
    dof rx ry rz
    limits (-20.0 45.0)
           (-30.0 30.0)
           (-30.0 30.0)
  end
  begin
     id 14 
     name lowerneck
     direction 0.0168698 0.977854 0.208608   
     length 1.6375   
     axis 0 0 0   XYZ
    dof rx ry rz
    limits (-20.0 45.0)
           (-30.0 30.0)
           (-30.0 30.0)
  end
  begin
     id 15 
     name upperneck
     direction -0.0283988 0.989338 -0.142843   
     length 1.6851   
     axis 0 0 0   XYZ
    dof rx ry rz
    limits (-20.0 45.0)
           (-30.0 30.0)
           (-30.0 30.0)
  end
  begin
     id 16
     name head
     direction -0.0129422 0.99741 -0.0707489  
     length 1.69029  
     axis 0 0 0   XYZ
    dof rx ry rz
    limits (-20.0 45.0)
           (-30.0 30.0)
           (-30.0 30.0)
  end
  begin
     id 17 
     name lclavicle
     direction 0.820295 0.564628 -0.0911715  
     length 3.16484  
     axis 0 0 0   XYZ
    dof ry rz
    limits (-20.0 10.0)
           (0.0 20.0)
  end
  begin
     id 18 
     name lhumerus
     direction 1 -4.48969e-011 1.00186e-027   
     length 5.17853   
     axis 180 -30 -90   XYZ
    dof rx ry rz
    limits (-60.0 90.0)
           (-90.0 90.0)
           (-90.0 90.0)
  end
  begin
     id 19
     name lradius
     direction 1 -4.48966e-011 -1.52922e-027   
     length 3.40399   
     axis 180 -30 -90   XYZ
    dof rx
    limits (-10.0 170.0)
  end
  begin
     id 20
     name lwrist
     direction 1 -4.48981e-011 -3.80893e-027   
     length 1.70199   
     axis 1.1049e-015 90 90   XYZ
    dof ry
    limits (-180.0 0.0)
 end
  begin
     id 21 
     name lhand
     direction 1 -4.48957e-011 -7.61786e-027   
     length 0.708964   
     axis 4.86085e-015 90 90   XYZ
    dof rx rz
    limits (-90.0 90.0)
           (-45.0 45.0)
  end
  begin
     id 22 
     name lfingers
     direction 1 -4.48929e-011 -1.52357e-026   
     length 0.571585   
     axis 9.7217e-015 90 90   XYZ
    dof rx
    limits (0.0 90.0)
  end
  begin
     id 23
     name lthumb
     direction 0.707107 -6.34905e-011 0.707107   
     length 0.820685   
     axis -90 45 2.85299e-015   XYZ
    dof rx rz
    limits (-45.0 45.0)
           (-45.0 45.0)
  end
  begin
     id 24 
     name rclavicle
     direction -0.858602 0.463947 -0.218075   
     length 3.35137  
     axis 0 0 0   XYZ 
    dof ry rz
    limits (-10.0 20.0)
           (-20.0 0.0)
  end
  begin
     id 25 
     name rhumerus
     direction -1 -4.48969e-011 -1.98511e-027  
     length 5.42351   
     axis 180 30 90   XYZ
    dof rx ry rz
    limits (-90.0 60.0)
           (-90.0 90.0)
           (-90.0 90.0)
  end
  begin
     id 26 
     name rradius
     direction -1 -4.48961e-011 -2.82624e-027   
     length 3.42066   
     axis 180 30 90   XYZ
    dof rx
    limits (-10.0 170.0)
  end
  begin
     id 27 
     name rwrist
     direction -1 -4.48966e-011 -3.80893e-027   
     length 1.71033   
     axis 1.1049e-015 -90 -90   XYZ
    dof ry
    limits (-180.0 0.0)
  end
  begin
     id 28
     name rhand
     direction -1 -4.48964e-011 -7.61786e-027   
     length 0.743608   
     axis 4.86085e-015 -90 -90   XYZ
    dof rx rz
    limits (-90.0 90.0)
           (-45.0 45.0)
  end
  begin
     id 29
     name rfingers
     direction -1 -4.48961e-011 -1.52357e-026   
     length 0.599516   
     axis 9.7217e-015 -90 -90   XYZ
    dof rx
    limits (0.0 90.0)
  end
  begin
     id 30
     name rthumb
     direction -0.707107 -6.34913e-011 0.707107   
     length 0.860789   
     axis -90 -45 -2.85299e-015   XYZ
    dof rx rz
    limits (-45.0 45.0)
           (-45.0 45.0)
  end
:hierarchy
  begin
    root lhipjoint rhipjoint lowerback
    lhipjoint lfemur
    lfemur ltibia
    ltibia lfoot
    lfoot ltoes
    rhipjoint rfemur
    rfemur rtibia
    rtibia rfoot
    rfoot rtoes
    lowerback upperback
    upperback thorax
    thorax lowerneck lclavicle rclavicle
    lowerneck upperneck
    upperneck head
    lclavicle lhumerus
    lhumerus lradius
    lradius lwrist
    lwrist lhand lthumb
    lhand lfingers
    rclavicle rhumerus
    rhumerus rradius
    rradius rwrist
    rwrist rhand rthumb
    rhand rfingers
  end

#!OML:ASF E:\mmandel\Project 1\Capture day 1\Session 2\Subject.ASF
:FULLY-SPECIFIED
:DEGREES
2227
root 9.56457 15.2811 -1.87771 716.799 71.4633 696.482
lowerback 18.1514 2.92914 -8.97395
upperback 2.82564 2.19723 -0.469951
thorax -7.41777 1.34106 4.0424
lowerneck -16.8566 -2.03036 1.03169
upperneck 9.71623 -2.70054 -1.87589
head 5.63384 -1.42101 -1.01911
rclavicle 7.15625e-015 1.90833e-014
rhumerus -21.482 -1.67216 -81.3818
rradius 63.0724
rwrist -23.1856
rhand -9.15696 27.1449
rfingers 7.12502
rthumb 16.7953 -2.14869
lclavicle 7.15625e-015 1.90833e-014
lhumerus -13.5271 -17.953 69.3976
lradius 55.9582
lwrist 28.5686
lhand -17.7846 -32.0162
lfingers 7.12502
lthumb 8.47818 -2.20641
rfemur -47.4609 -11.1568 14.8971
rtibia 62.5873
rfoot -22.9027 -2.20389
rtoes -25.346
lfemur -53.9539 16.3265 -16.0811
ltibia 59.7114
lfoot -23.7466 1.62482
ltoes 7.7964
2228
root 9.57202 15.2876 -1.86814 716.638 71.3435 696.225
lowerback 18.2274 2.91127 -9.0548
upperback 2.72659 2.14436 -0.430013
thorax -7.56498 1.32555 4.14108
lowerneck -16.8174 -1.98393 1.02189
upperneck 9.786 -2.60277 -2.10531
head 5.64827 -1.3914 -1.08124
rclavicle -1.19271e-014 -6.04305e-014
rhumerus -21.427 -1.40311 -81.4126
rradius 63.3075
rwrist -23.1213
rhand -8.96661 27.051
rfingers 7.12502
rthumb 16.9786 -2.22695
lclavicle -1.19271e-014 -6.04305e-014
lhumerus -13.8598 -17.8702 69.6001
lradius 56.0546
lwrist 28.6352
lhand -17.9987 -32.3554
lfingers 7.12502
lthumb 8.27154 -2.53737
rfemur -47.7309 -10.8282 14.9408
rtibia 61.8152
rfoot -22.9586 -2.10997
rtoes -24.6423
lfemur -53.9465 16.4859 -15.9536
ltibia 59.615
lfoot -23.6939 1.54208
ltoes 7.97118
2229
root 9.5805 15.3002 -1.85677 716.568 71.3145 696.141
lowerback 18.3399 2.87473 -9.13524
upperback 2.72349 2.06921 -0.428898
thorax -7.62148 1.29422 4.20411
lowerneck -16.9553 -1.91165 1.26197
upperneck 9.88135 -2.48145 -2.66332
head 5.69291 -1.367 -1.28825
rclavicle 1.43125e-014 3.18055e-015
rhumerus -21.3589 -1.18896 -81.4774
rradius 63.6145
rwrist -22.9718
rhand -8.82734 26.9625
rfingers 7.12502
rthumb 17.1126 -2.30388
lclavicle 1.43125e-014 3.18055e-015
lhumerus -14.0776 -17.6181 69.7446
lradius 56.2719
lwrist 28.5763
lhand -18.0644 -32.4097
lfingers 7.12502
lthumb 8.20815 -2.58909
rfemur -47.8874 -10.5134 14.8344
rtibia 60.9812
rfoot -23.1596 -1.89164
rtoes -23.9349
lfemur -53.8062 16.5072 -15.856
ltibia 59.4626
lfoot -23.6358 1.53168
ltoes 8.06351
2230
root 9.59648 15.316 -1.84588 716.504 71.278 696.16
lowerback 18.4126 2.83764 -9.14411
upperback 2.81186 2.01589 -0.478553
thorax -7.55427 1.26443 4.16848
lowerneck -17.094 -1.91837 1.49533
upperneck 9.84044 -2.47784 -3.13918
head 5.69357 -1.39383 -1.47794
rclavicle -1.19271e-014 2.70347e-014
rhumerus -21.201 -1.00255 -81.576
rradius 63.856
rwrist -22.8614
rhand -8.76251 27.0717
rfingers 7.12502
rthumb 17.175 -2.18921
lclavicle -1.19271e-014 2.70347e-014
lhumerus -14.1366 -17.4008 69.837
lradius 56.3838
lwrist 28.5365
lhand -17.9778 -32.1214
lfingers 7.12502
lthumb 8.29177 -2.3041
rfemur -47.8994 -10.2425 14.68
rtibia 60.1282
rfoot -23.218 -1.77489
rtoes -23.775
lfemur -53.4667 16.4618 -15.7532
ltibia 59.2791
lfoot -23.6827 1.65809
ltoes 7.79287
2231
root 9.61043 15.323 -1.83338 716.48 71.1769 696.161
lowerback 18.4335 2.82766 -9.15576
upperback 2.82269 1.99628 -0.520019
thorax -7.54978 1.25455 4.13451
lowerneck -17.2171 -2.05548 1.53266
upperneck 9.86907 -2.64518 -3.31502
head 5.71547 -1.48813 -1.5579
rclavicle 1.90833e-014 3.65764e-014
rhumerus -21.0697 -0.869408 -81.6233
rradius 63.9896
rwrist -22.8118
rhand -8.55099 27.3123
rfingers 7.12502
rthumb 17.3786 -1.93078
lclavicle 1.90833e-014 3.65764e-014
lhumerus -14.3575 -17.2814 70.0141
lradius 56.4552
lwrist 28.486
lhand -17.8579 -31.9189
lfingers 7.12502
lthumb 8.40746 -2.10621
rfemur -47.9824 -10.0017 14.6381
rtibia 59.2888
rfoot -23.092 -1.96994
rtoes -23.8809
lfemur -53.2163 16.4881 -15.6444
ltibia 59.1057
lfoot -23.7318 1.76199
ltoes 7.5092
2232
root 9.61846 15.3311 -1.817 716.508 71.0611 696.158
lowerback 18.4357 2.83319 -9.23058
upperback 2.80456 1.98421 -0.557457
thorax -7.5701 1.25147 4.13861
lowerneck -17.3945 -2.1999 1.53782
upperneck 9.94278 -2.83947 -3.31773
head 5.76229 -1.58372 -1.58196
rclavicle 4.13472e-014 3.18055e-015
rhumerus -20.9951 -0.718483 -81.6842
rradius 64.2063
rwrist -22.7495
rhand -8.42727 27.4114
rfingers 7.12502
rthumb 17.4977 -1.82109
lclavicle 4.13472e-014 3.18055e-015
lhumerus -14.6101 -17.162 70.1703
lradius 56.5498
lwrist 28.474
lhand -17.8392 -32.0024
lfingers 7.12502
lthumb 8.42549 -2.19049
rfemur -48.1375 -9.64405 14.5771
rtibia 58.4616
rfoot -23.0527 -2.05555
rtoes -23.3909
lfemur -53.0616 16.6279 -15.5608
ltibia 58.9212
lfoot -23.7602 1.76312
ltoes 7.57067
2233
root 9.62535 15.348 -1.79942 716.505 71.0775 696.116
lowerback 18.4772 2.77816 -9.34221
upperback 2.79727 1.88579 -0.55535
thorax -7.5898 1.20851 4.22826
lowerneck -17.4735 -2.12253 1.44478
upperneck 10.0021 -2.73374 -3.17538
head 5.80023 -1.52525 -1.51367
rclavicle -6.52014e-014 -1.59028e-015
rhumerus -20.8284 -0.421691 -81.7602
rradius 64.4439
rwrist -22.6647
rhand -8.40126 27.3664
rfingers 7.12502
rthumb 17.5227 -1.86389
lclavicle -6.52014e-014 -1.59028e-015
lhumerus -14.7912 -16.9627 70.2926
lradius 56.5835
lwrist 28.5013
lhand -17.9216 -31.9533
lfingers 7.12502
lthumb 8.34598 -2.13814
rfemur -48.2617 -9.29803 14.4619
rtibia 57.6135
rfoot -23.0798 -2.1962
rtoes -23.2302
lfemur -52.9277 16.6767 -15.5081
ltibia 58.7099
lfoot -23.7449 1.81799
ltoes 7.37811
2234
root 9.62958 15.3586 -1.78182 716.546 71.1694 696.049
lowerback 18.4887 2.69055 -9.41831
upperback 2.75739 1.75429 -0.52113
thorax -7.62399 1.15028 4.34174
lowerneck -17.321 -2.02663 1.16465
upperneck 9.9238 -2.57817 -2.90339
head 5.76199 -1.43804 -1.36384
rclavicle -7.95139e-016 -3.97569e-014
rhumerus -20.6085 -0.114255 -81.7352
rradius 64.5743
rwrist -22.5656
rhand -8.31866 27.5901
rfingers 7.12502
rthumb 17.6022 -1.63308
lclavicle -7.95139e-016 -3.97569e-014
lhumerus -14.9132 -16.8349 70.4198
lradius 56.5271
lwrist 28.6486
lhand -17.9644 -31.8875
lfingers 7.12502
lthumb 8.30469 -2.07077
rfemur -48.5038 -9.0577 14.3728
rtibia 56.7781
rfoot -23.1156 -2.70663
rtoes -24.6278
lfemur -52.9299 16.6387 -15.4715
ltibia 58.4994
lfoot -23.6211 1.84232
ltoes 7.20522
2235
root 9.63744 15.3651 -1.76712 717.017 71.1578 696.394
lowerback 18.3639 2.65616 -9.41361
upperback 2.73007 1.71524 -0.605147
thorax -7.57781 1.12897 4.25946
lowerneck -17.0076 -2.13736 0.959276
upperneck 9.56182 -2.7105 -2.70635
head 5.59881 -1.49253 -1.27177
rclavicle 7.95139e-015 -3.18055e-015
rhumerus -20.4856 -0.0512768 -81.6962
rradius 64.7711
rwrist -22.4559
rhand -8.19218 27.777
rfingers 7.12502
rthumb 17.7239 -1.4352
lclavicle 7.95139e-015 -3.18055e-015
lhumerus -14.9701 -16.9491 70.4787
lradius 56.4789
lwrist 28.844
lhand -17.877 -32.0638
lfingers 7.12502
lthumb 8.38903 -2.2504
rfemur -48.8252 -8.89685 14.1655
rtibia 55.9668
rfoot -23.0975 -3.00454
rtoes -25.9254
lfemur -52.9132 16.6856 -15.5813
ltibia 58.278
lfoot -23.5785 1.78671
ltoes 7.39513
2236
root 9.64817 15.3763 -1.75355 718.037 71.101 697.351
lowerback 18.2998 2.66339 -9.53307
upperback 2.69023 1.69101 -0.803104
thorax -7.58031 1.1195 4.11744
lowerneck -17.064 -2.25055 1.083
upperneck 9.48796 -2.87509 -2.82638
head 5.57745 -1.57734 -1.34498
rclavicle -2.94201e-014 -1.74931e-014
rhumerus -20.4577 -0.00582372 -81.7326
rradius 65.12
rwrist -22.4323
rhand -8.10468 27.5799
rfingers 7.12502
rthumb 17.8081 -1.62473
lclavicle -2.94201e-014 -1.74931e-014
lhumerus -15.0345 -17.0938 70.4904
lradius 56.422
lwrist 28.9417
lhand -17.6879 -32.0598
lfingers 7.12502
lthumb 8.5715 -2.25383
rfemur -49.1014 -8.75132 13.7368
rtibia 55.1992
rfoot -22.9723 -2.79928
rtoes -26.1367
lfemur -52.7872 16.7502 -15.9002
ltibia 58.0539
lfoot -23.6054 1.81715
ltoes 7.23061
2237
root 9.65473 15.3884 -1.73315 718.94 71.158 698.22
lowerback 18.3074 2.65513 -9.75481
upperback 2.66969 1.62477 -0.949652
thorax -7.59857 1.09402 4.09868
lowerneck -17.3176 -2.4067 1.15563
upperneck 9.56141 -3.10729 -2.78254
head 5.63605 -1.68554 -1.36967
rclavicle 3.18055e-015 -3.18055e-015
rhumerus -20.4534 0.180284 -81.7406
rradius 65.5321
rwrist -22.47
rhand -8.1229 27.5647
rfingers 7.12502
rthumb 17.7906 -1.64146
lclavicle 3.18055e-015 -3.18055e-015
lhumerus -15.0533 -17.1562 70.5371
lradius 56.3458
lwrist 29.0202
lhand -17.6854 -31.881
lfingers 7.12502
lthumb 8.57396 -2.07506
rfemur -49.3425 -8.49422 13.262
rtibia 54.4713
rfoot -22.92 -2.62062
rtoes -25.7837
lfemur -52.6889 16.7768 -16.1964
ltibia 57.8583
lfoot -23.5706 1.84942
ltoes 6.65491
2238
root 9.65839 15.3893 -1.70323 718.447 71.2908 697.728
lowerback 18.4188 2.6094 -9.64465
upperback 2.67819 1.57777 -0.909568
thorax -7.64155 1.07069 4.0902
lowerneck -17.5627 -2.59909 1.03918
upperneck 9.68717 -3.36713 -2.56825
head 5.71551 -1.80061 -1.31379
rclavicle 5.56597e-015 7.95139e-015
rhumerus -20.3129 0.355266 -81.6873
rradius 65.7533
rwrist -22.4364
rhand -8.21551 27.6829
rfingers 7.12502
rthumb 17.7015 -1.53142
lclavicle 5.56597e-015 7.95139e-015
lhumerus -15.1818 -17.1093 70.6856
lradius 56.3964
lwrist 29.0316
lhand -17.6691 -31.692
lfingers 7.12502
lthumb 8.58968 -1.88677
rfemur -49.4241 -8.08796 13.2338
rtibia 53.7261
rfoot -23.072 -3.00134
rtoes -25.2606
lfemur -52.6159 16.8882 -15.9773
ltibia 57.74
lfoot -23.533 1.7692
ltoes 5.76364
2239
root 9.665 15.3868 -1.66917 716.959 71.3206 696.306
lowerback 18.5678 2.55733 -9.3409
upperback 2.71032 1.56782 -0.738359
thorax -7.68345 1.06023 4.10608
lowerneck -17.8085 -2.61638 0.998884
upperneck 9.93298 -3.3741 -2.59811
head 5.83363 -1.80885 -1.32532
rclavicle -6.75868e-014 -3.49861e-014
rhumerus -19.9187 0.604754 -81.5989
rradius 65.6647
rwrist -22.4435
rhand -8.40614 27.6673
rfingers 7.12502
rthumb 17.518 -1.56338
lclavicle -6.75868e-014 -3.49861e-014
lhumerus -15.4494 -16.8933 70.8857
lradius 56.474
lwrist 28.9239
lhand -17.5294 -31.6031
lfingers 7.12502
lthumb 8.72449 -1.8034
rfemur -49.2952 -7.53912 13.5461
rtibia 52.9413
rfoot -23.2542 -3.53664
rtoes -24.3328
lfemur -52.4293 17.1108 -15.3462
ltibia 57.6868
lfoot -23.5188 1.58253
ltoes 5.26358
2240
root 9.67782 15.3967 -1.638 716.394 71.2733 695.851
lowerback 18.55 2.56469 -9.31831
upperback 2.78946 1.59689 -0.655915
thorax -7.59237 1.06922 4.17762
lowerneck -17.541 -2.64557 0.928264
upperneck 9.64224 -3.40534 -2.55183
head 5.69921 -1.82188 -1.29352
rclavicle -1.90833e-014 8.11041e-014
rhumerus -19.576 0.828452 -81.4718
rradius 65.6406
rwrist -22.5279
rhand -8.52328 27.788
rfingers 7.12502
rthumb 17.4053 -1.4527
lclavicle -1.90833e-014 8.11041e-014
lhumerus -15.6138 -16.798 71.0411
lradius 56.4848
lwrist 28.9625
lhand -17.3012 -31.4684
lfingers 7.12502
lthumb 8.94473 -1.67796
rfemur -49.1373 -6.99649 13.4859
rtibia 52.1403
rfoot -23.2787 -3.52324
rtoes -23.3481
lfemur -52.1165 17.2975 -15.0438
ltibia 57.6099
lfoot -23.5747 1.46919
ltoes 5.20969
